<svg xmlns="http://www.w3.org/2000/svg" version="1.1" xmlns:xlink="http://www.w3.org/1999/xlink" xmlns:svgjs="http://svgjs.dev/svgjs" width="1000" height="1000" viewBox="0 0 1000 1000"><rect width="1000" height="1000" fill="#000000"></rect><g transform="matrix(0.7,0,0,0.7,149.57576407806664,349.0692416895088)"><svg viewBox="0 0 396 171" data-background-color="#ffffff" preserveAspectRatio="xMidYMid meet" height="431" width="1000" xmlns="http://www.w3.org/2000/svg" xmlns:xlink="http://www.w3.org/1999/xlink"><g id="tight-bounds" transform="matrix(1,0,0,1,0.23999632733421095,0.04577484629625417)"><svg viewBox="0 0 395.52 170.90845229624935" height="170.90845229624935" width="395.52"><g><svg viewBox="0 0 687.2415234129605 296.9644648063959" height="170.90845229624935" width="395.52"><g><svg viewBox="0 0 395.52 296.9644648063959" height="296.9644648063959" width="395.52"><g><svg viewBox="0 0 395.52 296.9644648063959" height="296.9644648063959" width="395.52"><g><svg viewBox="0 0 395.52 200.3175393219154" height="200.3175393219154" width="395.52"><g transform="matrix(1,0,0,1,0,0)"><svg width="395.52" viewBox="4.389999866485596 -34.88999938964844 69.8499984741211 35.380001068115234" height="200.3175393219154" data-palette-color="#010c80"><path d="M7.2-24.12L7.96-22.31Q11.01-24.58 14.7-24.58L14.7-24.58Q17.24-24.58 19.31-23.63L19.31-23.63 18.09-20.43Q16.19-21.17 14.14-21.17L14.14-21.17Q11.08-21.17 8.4-19.48L8.4-19.48 8.4 0 4.39 0 4.39-24.12 7.2-24.12ZM23.58-30.08L23.58-34.69 28.32-34.69 28.32-30.08 23.58-30.08ZM23.95 0L23.95-24.12 27.95-24.12 27.95 0 23.95 0ZM48.51-31.54L48.51-31.54Q47.07-31.54 46.02-31.14 44.97-30.74 44.44-30.21 43.92-29.69 43.61-28.94 43.31-28.2 43.24-27.72 43.18-27.25 43.18-26.73L43.18-26.73 43.18-24.12 51.26-24.12 51.26-20.97 43.18-20.97 43.18 0 39.13 0 39.13-20.97 35.64-20.97 35.64-24.12 39.13-24.12 39.13-26.56Q39.13-29.74 40.08-31.4L40.08-31.4Q41.04-33.08 42.89-33.98 44.75-34.89 47.19-34.89L47.19-34.89Q49.8-34.89 52.97-33.94L52.97-33.94 52.36-30.96Q50.09-31.54 48.51-31.54ZM66.76-24.58L66.76-24.58Q67.28-24.58 67.73-24.57 68.18-24.56 68.61-24.51 69.04-24.46 69.34-24.44 69.65-24.41 70.05-24.34 70.45-24.27 70.63-24.23 70.82-24.19 71.24-24.08 71.67-23.97 71.77-23.95 71.87-23.93 72.34-23.78 72.82-23.63 72.89-23.61L72.89-23.61 71.87-20.56Q68.6-21.46 66.11-21.46L66.11-21.46Q64.67-21.46 63.55-21.17 62.44-20.87 61.85-20.46 61.25-20.04 60.87-19.49 60.49-18.95 60.38-18.53 60.27-18.12 60.27-17.72L60.27-17.72Q60.27-16.72 61.31-15.94 62.35-15.16 63.9-14.67 65.45-14.18 67.25-13.51 69.06-12.84 70.61-12.1 72.16-11.35 73.2-10.01 74.24-8.67 74.24-6.91L74.24-6.91Q74.24-5.91 73.98-4.97 73.72-4.03 73-3 72.28-1.98 71.15-1.23 70.01-0.49 68.11 0 66.2 0.49 63.74 0.49L63.74 0.49Q60 0.49 55.53-1.34L55.53-1.34 56.66-4.37Q59.17-3.44 60.77-3.05 62.37-2.66 63.91-2.66L63.91-2.66Q69.87-2.66 69.87-6.45L69.87-6.45Q69.87-7.28 69.28-7.91 68.69-8.54 67.72-8.95 66.74-9.35 65.51-9.78 64.27-10.21 62.99-10.57 61.71-10.94 60.48-11.54 59.25-12.13 58.27-12.85 57.29-13.57 56.71-14.72 56.12-15.87 56.12-17.31L56.12-17.31Q56.12-18.19 56.4-19.1 56.68-20.02 57.45-21.03 58.22-22.05 59.37-22.81 60.51-23.58 62.43-24.08 64.35-24.58 66.76-24.58Z" opacity="1" transform="matrix(1,0,0,1,0,0)" fill="#ffffff" class="undefined-text-0" data-fill-palette-color="primary" id="text-0"></path></svg></g></svg></g><g transform="matrix(1,0,0,1,0,247.60770273487591)"><svg viewBox="0 0 395.52 49.35676207151996" height="49.35676207151996" width="395.52"><g transform="matrix(1,0,0,1,0,0)"><svg width="395.52" viewBox="3.990000009536743 -35.63999938964844 375.3600158691406 46.84000015258789" height="49.35676207151996" data-palette-color="#77d4fc"><path d="M15.37-25.38L15.37-25.38Q17.09-25.38 18.35-25.13L18.35-25.13 17.85-21.61Q16.35-21.94 15.12-21.94L15.12-21.94Q12.08-21.94 9.93-19.49 7.79-17.04 7.79-13.37L7.79-13.37 7.79 0 3.99 0 3.99-24.92 7.13-24.92 7.56-20.32 7.74-20.32Q9.13-22.78 11.08-24.08 13.04-25.38 15.37-25.38ZM26.52-29.82Q25.88-29.17 24.9-29.17 23.91-29.17 23.31-29.82 22.7-30.46 22.7-31.7 22.7-32.94 23.31-33.57 23.91-34.2 24.9-34.2 25.88-34.2 26.52-33.56 27.15-32.91 27.15-31.69 27.15-30.46 26.52-29.82ZM23-24.92L26.79-24.92 26.79 0 23 0 23-24.92ZM39.69-24.92L46.03-24.92 46.03-21.99 39.69-21.99 39.69 0 35.89 0 35.89-21.99 31.45-21.99 31.45-23.71 35.89-25.08 35.89-26.47Q35.89-35.64 43.93-35.64L43.93-35.64Q45.93-35.64 48.58-34.86L48.58-34.86 47.6-31.83Q45.48-32.53 43.86-32.53L43.86-32.53Q41.71-32.53 40.7-31.09 39.69-29.65 39.69-26.54L39.69-26.54 39.69-24.92ZM66.68-6.8L66.68-6.8Q66.68-3.31 64.09-1.43 61.5 0.46 56.67 0.46 51.85 0.46 49.06-1.11L49.06-1.11 49.06-4.63Q52.96-2.65 56.9-2.65L56.9-2.65Q63.04-2.65 63.04-6.47L63.04-6.47Q63.04-7.94 61.75-8.99 60.47-10.04 56.95-11.36 53.44-12.69 51.9-13.68L51.9-13.68Q48.99-15.65 48.99-18.76 48.99-21.87 51.47-23.62 53.94-25.38 58.15-25.38 62.36-25.38 66.15-23.76L66.15-23.76 64.81-20.68Q61.1-22.22 58.23-22.22 55.36-22.22 53.98-21.4 52.6-20.58 52.6-19.06L52.6-19.06Q52.6-18.1 53.1-17.38 53.59-16.66 54.73-16.01 55.86-15.37 59.13-14.18L59.13-14.18Q63.57-12.54 65.13-10.91 66.68-9.28 66.68-6.8ZM89.76-29.82Q89.13-29.17 88.14-29.17 87.16-29.17 86.55-29.82 85.95-30.46 85.95-31.7 85.95-32.94 86.55-33.57 87.16-34.2 88.14-34.2 89.13-34.2 89.76-33.56 90.39-32.91 90.39-31.69 90.39-30.46 89.76-29.82ZM86.25-24.92L90.04-24.92 90.04 0 86.25 0 86.25-24.92ZM114.13-6.8L114.13-6.8Q114.13-3.31 111.54-1.43 108.95 0.46 104.12 0.46 99.29 0.46 96.51-1.11L96.51-1.11 96.51-4.63Q100.4-2.65 104.35-2.65L104.35-2.65Q110.49-2.65 110.49-6.47L110.49-6.47Q110.49-7.94 109.2-8.99 107.91-10.04 104.4-11.36 100.88-12.69 99.34-13.68L99.34-13.68Q96.44-15.65 96.44-18.76 96.44-21.87 98.91-23.62 101.39-25.38 105.6-25.38 109.81-25.38 113.6-23.76L113.6-23.76 112.26-20.68Q108.54-22.22 105.67-22.22 102.81-22.22 101.43-21.4 100.05-20.58 100.05-19.06L100.05-19.06Q100.05-18.1 100.54-17.38 101.04-16.66 102.17-16.01 103.31-15.37 106.57-14.18L106.57-14.18Q111.02-12.54 112.58-10.91 114.13-9.28 114.13-6.8ZM138.6-24.92L144.94-24.92 144.94-21.99 138.6-21.99 138.6 0 134.81 0 134.81-21.99 130.36-21.99 130.36-23.71 134.81-25.08 134.81-26.47Q134.81-35.64 142.85-35.64L142.85-35.64Q144.84-35.64 147.5-34.86L147.5-34.86 146.51-31.83Q144.39-32.53 142.77-32.53L142.77-32.53Q140.62-32.53 139.61-31.09 138.6-29.65 138.6-26.54L138.6-26.54 138.6-24.92ZM160.87-25.38L160.87-25.38Q162.59-25.38 163.85-25.13L163.85-25.13 163.35-21.61Q161.86-21.94 160.62-21.94L160.62-21.94Q157.58-21.94 155.43-19.49 153.29-17.04 153.29-13.37L153.29-13.37 153.29 0 149.49 0 149.49-24.92 152.63-24.92 153.06-20.32 153.24-20.32Q154.63-22.78 156.58-24.08 158.54-25.38 160.87-25.38ZM178.11 0.46L178.11 0.46Q172.57 0.46 169.36-2.91L169.36-2.91Q166.18-6.27 166.18-12.29 166.18-18.3 169.14-21.84L169.14-21.84Q172.14-25.38 176.98-25.38 181.83-25.38 184.56-22.3 187.29-19.21 187.29-14.18L187.29-14.18 187.29-11.78 170.1-11.78Q170.22-7.41 172.32-5.12 174.42-2.83 178.37-2.83 182.33-2.83 186.2-4.52L186.2-4.52 186.2-1.16Q184.25-0.3 182.43 0.08 180.61 0.46 178.11 0.46ZM170.2-14.86L183.24-14.86Q183.24-18.43 181.65-20.32 180.06-22.22 177.09-22.22 174.12-22.22 172.31-20.27 170.5-18.33 170.2-14.86L170.2-14.86ZM204.25 0.46L204.25 0.46Q198.71 0.46 195.5-2.91L195.5-2.91Q192.32-6.27 192.32-12.29 192.32-18.3 195.27-21.84L195.27-21.84Q198.28-25.38 203.12-25.38 207.96-25.38 210.69-22.3 213.42-19.21 213.42-14.18L213.42-14.18 213.42-11.78 196.23-11.78Q196.36-7.41 198.46-5.12 200.56-2.83 204.51-2.83 208.47-2.83 212.34-4.52L212.34-4.52 212.34-1.16Q210.39-0.3 208.57 0.08 206.75 0.46 204.25 0.46ZM196.33-14.86L209.38-14.86Q209.38-18.43 207.79-20.32 206.19-22.22 203.22-22.22 200.25-22.22 198.45-20.27 196.64-18.33 196.33-14.86L196.33-14.86ZM249.39-6.8L249.39-6.8Q249.39-3.31 246.8-1.43 244.21 0.46 239.38 0.46 234.56 0.46 231.77-1.11L231.77-1.11 231.77-4.63Q235.67-2.65 239.61-2.65L239.61-2.65Q245.75-2.65 245.75-6.47L245.75-6.47Q245.75-7.94 244.46-8.99 243.17-10.04 239.66-11.36 236.15-12.69 234.61-13.68L234.61-13.68Q231.7-15.65 231.7-18.76 231.7-21.87 234.18-23.62 236.65-25.38 240.86-25.38 245.07-25.38 248.86-23.76L248.86-23.76 247.52-20.68Q243.81-22.22 240.94-22.22 238.07-22.22 236.69-21.4 235.31-20.58 235.31-19.06L235.31-19.06Q235.31-18.1 235.81-17.38 236.3-16.66 237.44-16.01 238.57-15.37 241.84-14.18L241.84-14.18Q246.28-12.54 247.84-10.91 249.39-9.28 249.39-6.8ZM271.73-5.31Q273.56-7.91 273.56-12.54 273.56-17.16 271.74-19.67 269.92-22.17 266.58-22.17L266.58-22.17Q262.79-22.17 261.07-20.07 259.35-17.97 259.3-13.32L259.3-13.32 259.3-12.49Q259.3-7.23 261.05-4.97 262.79-2.7 266.66-2.7L266.66-2.7Q269.89-2.7 271.73-5.31ZM274.77-21.99Q277.48-18.6 277.48-12.46 277.48-6.32 274.73-2.93 271.99 0.46 266.97 0.46 261.96 0.46 259.3-3.21L259.3-3.21 259.02-3.21Q259.3-0.91 259.3 0.94L259.3 0.94 259.3 11.2 255.51 11.2 255.51-24.92 258.59-24.92 259.13-21.51 259.3-21.51Q262.03-25.38 267.05-25.38 272.07-25.38 274.77-21.99ZM294.59 0.46L294.59 0.46Q289.05 0.46 285.84-2.91L285.84-2.91Q282.66-6.27 282.66-12.29 282.66-18.3 285.62-21.84L285.62-21.84Q288.62-25.38 293.47-25.38 298.31-25.38 301.04-22.3 303.77-19.21 303.77-14.18L303.77-14.18 303.77-11.78 286.58-11.78Q286.7-7.41 288.8-5.12 290.9-2.83 294.86-2.83 298.81-2.83 302.68-4.52L302.68-4.52 302.68-1.16Q300.73-0.3 298.91 0.08 297.09 0.46 294.59 0.46ZM286.68-14.86L299.72-14.86Q299.72-18.43 298.13-20.32 296.54-22.22 293.57-22.22 290.6-22.22 288.79-20.27 286.98-18.33 286.68-14.86L286.68-14.86ZM320.73 0.46L320.73 0.46Q315.19 0.46 311.98-2.91L311.98-2.91Q308.8-6.27 308.8-12.29 308.8-18.3 311.75-21.84L311.75-21.84Q314.76-25.38 319.6-25.38 324.44-25.38 327.17-22.3 329.9-19.21 329.9-14.18L329.9-14.18 329.9-11.78 312.71-11.78Q312.84-7.41 314.94-5.12 317.04-2.83 320.99-2.83 324.95-2.83 328.82-4.52L328.82-4.52 328.82-1.16Q326.87-0.3 325.05 0.08 323.23 0.46 320.73 0.46ZM312.82-14.86L325.86-14.86Q325.86-18.43 324.27-20.32 322.67-22.22 319.7-22.22 316.73-22.22 314.93-20.27 313.12-18.33 312.82-14.86L312.82-14.86ZM346.31 0.46L346.31 0.46Q340.87 0.46 337.89-2.88L337.89-2.88Q334.93-6.22 334.93-12.37 334.93-18.53 337.94-21.97L337.94-21.97Q340.98-25.38 346.54-25.38L346.54-25.38Q348.36-25.38 350.15-25 351.95-24.62 352.96-24.09L352.96-24.09 351.79-20.88Q348.99-22.04 346.46-22.04L346.46-22.04Q338.85-22.04 338.85-12.36L338.85-12.36Q338.85-7.74 340.72-5.28 342.59-2.83 346.21-2.83L346.21-2.83Q349.29-2.83 352.6-4.2L352.6-4.2 352.6-0.83Q350.1 0.46 346.31 0.46ZM379.35-16.25L379.35 0 375.56 0 375.56-16.13Q375.56-19.21 374.17-20.69 372.78-22.17 369.84-22.17L369.84-22.17Q365.87-22.17 364.08-20.02 362.29-17.87 362.29-13.04L362.29-13.04 362.29 0 358.49 0 358.49-35.39 362.29-35.39 362.29-24.67Q362.29-22.65 362.11-21.49L362.11-21.49 362.34-21.49Q363.47-23.31 365.53-24.33 367.59-25.35 370.2-25.35L370.2-25.35Q374.82-25.35 377.09-23.15 379.35-20.96 379.35-16.25L379.35-16.25Z" opacity="1" transform="matrix(1,0,0,1,0,0)" fill="#ffffff" class="undefined-text-1" data-fill-palette-color="secondary" id="text-1"></path></svg></g></svg></g></svg></g></svg></g><g transform="matrix(1,0,0,1,442.8101634129605,33.381844330528736)"><svg viewBox="0 0 244.43135999999998 230.2007761453384" height="230.2007761453384" width="244.43135999999998"><g><svg xmlns="http://www.w3.org/2000/svg" xmlns:xlink="http://www.w3.org/1999/xlink" version="1.1" x="0" y="0" viewBox="18.799999237060547 20.5 58.39999771118164 55" style="enable-background:new 0 0 96 96;" xml:space="preserve" height="230.2007761453384" width="244.43135999999998" class="icon-icon-0" data-fill-palette-color="accent" id="icon-0"><g fill="#0074d9" data-fill-palette-color="accent"><path d="M60.8 25.5c-1.9 0-3.5 1.6-3.5 3.5v38c0 1.9 1.6 3.5 3.5 3.5s3.5-1.6 3.5-3.5V29C64.3 27.1 62.8 25.5 60.8 25.5z" fill="#ffffff" data-fill-palette-color="accent"></path><path d="M48 20.5c-1.9 0-3.5 1.6-3.5 3.5v48c0 1.9 1.6 3.5 3.5 3.5s3.5-1.6 3.5-3.5V24C51.5 22.1 49.9 20.5 48 20.5z" fill="#ffffff" data-fill-palette-color="accent"></path><path d="M35.2 32.5c-1.9 0-3.5 1.6-3.5 3.5v24c0 1.9 1.6 3.5 3.5 3.5 1.9 0 3.5-1.6 3.5-3.5V36C38.7 34.1 37.1 32.5 35.2 32.5z" fill="#ffffff" data-fill-palette-color="accent"></path><path d="M22.3 37.5c-1.9 0-3.5 1.6-3.5 3.5v14c0 1.9 1.6 3.5 3.5 3.5s3.5-1.6 3.5-3.5V41C25.8 39.1 24.3 37.5 22.3 37.5z" fill="#ffffff" data-fill-palette-color="accent"></path><path d="M73.7 37.5c-1.9 0-3.5 1.6-3.5 3.5v14c0 1.9 1.6 3.5 3.5 3.5 1.9 0 3.5-1.6 3.5-3.5V41C77.2 39.1 75.6 37.5 73.7 37.5z" fill="#ffffff" data-fill-palette-color="accent"></path></g></svg></g></svg></g></svg></g><defs></defs></svg><rect width="395.52" height="170.90845229624935" fill="none" stroke="none" visibility="hidden"></rect></g></svg></g></svg>